<svg xmlns="http://www.w3.org/2000/svg" version="1.1" xmlns:xlink="http://www.w3.org/1999/xlink" xmlns:svgjs="http://svgjs.dev/svgjs" width="2000" height="1500" viewBox="0 0 2000 1500"><rect width="2000" height="1500" fill="#31c48d"></rect><g transform="matrix(0.75,0,0,0.75,249.090909090909,282.7536437246963)"><svg viewBox="0 0 396 247" data-background-color="#31c48d" preserveAspectRatio="xMidYMid meet" height="1247" width="2000" xmlns="http://www.w3.org/2000/svg" xmlns:xlink="http://www.w3.org/1999/xlink"><g id="tight-bounds" transform="matrix(1,0,0,1,0.2400000000000091,-0.09999999999999432)"><svg viewBox="0 0 395.52 247.2" height="247.2" width="395.52"><g><svg></svg></g><g><svg viewBox="0 0 395.52 247.2" height="247.2" width="395.52"><g transform="matrix(1,0,0,1,75.54432,96.44484807763345)"><svg viewBox="0 0 244.43135999999998 54.31030384473308" height="54.31030384473308" width="244.43135999999998"><g><svg viewBox="0 0 244.43135999999998 54.31030384473308" height="54.31030384473308" width="244.43135999999998"><g><svg viewBox="0 0 326.0028560730145 72.43470791790467" height="54.31030384473308" width="244.43135999999998"><g transform="matrix(1,0,0,1,81.57149607301452,10.010874972735017)"><svg viewBox="0 0 244.43135999999998 52.41295797243464" height="52.41295797243464" width="244.43135999999998"><g id="textblocktransform"><svg viewBox="0 0 244.43135999999998 52.41295797243464" height="52.41295797243464" width="244.43135999999998" id="textblock"><g><svg viewBox="0 0 244.43135999999998 28.26904505124636" height="28.26904505124636" width="244.43135999999998"><g transform="matrix(1,0,0,1,0,0)"><svg width="244.43135999999998" viewBox="1.9000000953674316 -36.54999923706055 395.1300048828125 45.69999694824219" height="28.26904505124636" data-palette-color="#ddf1ea"><g class="wordmark-text-0" data-fill-palette-color="primary" id="text-0"><path d="M22.4-29.75L22.4-29.75 22.3-25.2 22.3-15.55Q22.3-13.45 23.6-12.3 24.9-11.15 26.65-11.15 28.4-11.15 29.68-12.3 30.95-13.45 30.95-15.55L30.95-15.55 30.95-30.45Q30.95-32.8 31.58-33.9 32.2-35 34.3-35L34.3-35 38.9-35Q40.5-35 41.1-34.05L41.1-34.05Q42.25-32.35 42.25-20.9L42.25-20.9Q42.25-17.15 42.15-15.15L42.15-15.15Q42-11.1 40.28-7.93 38.55-4.75 35.85-2.85L35.85-2.85Q30.4 1 23.5 1L23.5 1Q14.4 1 8.45-3.25L8.45-3.25Q5.45-5.4 3.73-8.97 2-12.55 1.95-17.3L1.95-17.3Q1.9-19.65 1.9-24.23 1.9-28.8 2.02-30.83 2.15-32.85 2.83-33.93 3.5-35 5.55-35L5.55-35 18.9-35Q20.9-35 21.55-33.95L21.55-33.95Q22.4-32.6 22.4-29.75ZM66.2-7.6L66.2-7.6Q69.15-7.6 69.15-12.48 69.15-17.35 66.2-17.35L66.2-17.35Q65.05-17.35 64.12-16.57 63.2-15.8 63.2-14.4L63.2-14.4 63.2-10.55Q63.2-9.15 64.12-8.38 65.05-7.6 66.2-7.6ZM50.2-25.45L50.2-25.45 59.4-25.4Q60.6-25.4 61.5-24.68 62.4-23.95 62.45-22.6L62.45-22.6Q64.4-24.35 67.17-25.25 69.95-26.15 72.65-26.15L72.65-26.15Q77.35-26.15 80.35-22.83 83.35-19.5 83.35-12.75L83.35-12.75Q83.35-8.9 82.3-6.18 81.25-3.45 79.45-2L79.45-2Q76 0.65 71.22 0.65 66.45 0.65 63.75-2.45L63.75-2.45Q63.4-2.8 63.22-2.65 63.05-2.5 63.05-2.2L63.05-2.2Q63.05 1.35 62.75 5.55L62.75 5.55Q62.65 7.2 62.1 7.93 61.55 8.65 59.85 8.65L59.85 8.65 50.25 8.65Q48.6 8.65 48.02 7.85 47.45 7.05 47.4 5.4L47.4 5.4Q47.3 0.65 47.3-6.75L47.3-6.75 47.4-23.1Q47.4-24.1 48.32-24.78 49.25-25.45 50.2-25.45ZM91.75-35L91.75-35 105.14-35Q107.25-35 107.92-33.95 108.59-32.9 108.82-29.63 109.05-26.35 109.05-16.93 109.05-7.5 108.64-3.1L108.64-3.1Q108.5-1.95 107.62-1.05 106.75-0.15 105.3-0.05L105.3-0.05Q102.44 0.15 98.69 0.15 94.94 0.15 91.59-0.05L91.59-0.05Q90.14-0.15 89.27-1.05 88.39-1.95 88.25-3.1L88.25-3.1Q87.84-7.5 87.84-16.93 87.84-26.35 88.07-29.63 88.3-32.9 88.97-33.95 89.64-35 91.75-35ZM136.74-2.15L136.74-2.15 136.79-14.35Q136.79-15.85 136.04-16.6 135.29-17.35 134.17-17.35 133.04-17.35 132.12-16.57 131.19-15.8 131.19-14.4L131.19-14.4 131.19-11.35Q131.19-4.75 130.89-2.35L130.89-2.35Q130.74-1.5 130.04-0.85 129.34-0.2 127.57-0.08 125.79 0.05 124.04 0.05 122.29 0.05 118.09-0.15L118.09-0.15Q116.89-0.2 116.19-0.85 115.49-1.5 115.39-2.35L115.39-2.35Q115.04-5.6 115.04-12.3 115.04-19 115.24-21.48 115.44-23.95 115.99-24.7 116.54-25.45 118.24-25.45L118.24-25.45 127.99-25.45Q129.69-25.45 130.27-24.7 130.84-23.95 130.99-22.15L130.99-22.15 130.99-22.1Q134.84-26.1 140.37-26.1 145.89-26.1 149.04-23.4 152.19-20.7 152.27-15.95 152.34-11.2 152.34-7.45 152.34-3.7 152.29-2.4 152.24-1.1 151.62-0.53 150.99 0.05 149.19 0.05L149.19 0.05 139.59 0.15Q137.99 0.15 137.37-0.43 136.74-1 136.74-2.15ZM186.29-3.05L186.29-3.05Q186.24-1.95 185.34-1.03 184.44-0.1 182.94 0L182.94 0Q180.09 0.2 176.09 0.2 172.09 0.2 168.74 0L168.74 0Q167.24-0.1 166.34-1.03 165.44-1.95 165.39-3.05L165.39-3.05Q165.24-10.65 165.24-16.03 165.24-21.4 165.29-23.9L165.29-23.9Q165.29-25.8 163.59-25.8L163.59-25.8 159.09-25.8Q158.04-25.8 157.39-26.3 156.74-26.8 156.66-28.05 156.59-29.3 156.59-30.65 156.59-32 156.66-32.98 156.74-33.95 157.47-34.48 158.19-35 159.04-35L159.04-35Q165.54-35.1 176.64-35.1 187.74-35.1 192.54-35L192.54-35Q193.39-34.95 194.12-34.45 194.84-33.95 194.92-32.98 194.99-32 194.99-30.7 194.99-29.4 194.94-28.2L194.94-28.2Q194.79-25.95 192.49-25.95L192.49-25.95 187.99-25.95Q186.29-25.95 186.29-24.2L186.29-24.2Q186.44-17.9 186.44-12.8 186.44-7.7 186.29-3.05ZM200.09-2.35L200.09-2.35 199.99-18.7Q199.99-26.2 200.14-33.3L200.14-33.3Q200.19-34.95 200.76-35.75 201.34-36.55 202.99-36.55L202.99-36.55 212.59-36.55Q214.24-36.55 214.81-35.77 215.39-35 215.51-32.98 215.64-30.95 215.74-22.15L215.74-22.15Q219.64-26.1 225.11-26.1 230.59-26.1 233.74-23.4 236.89-20.7 236.96-15.95 237.04-11.2 237.04-7.45 237.04-3.7 236.99-2.4 236.94-1.1 236.31-0.53 235.69 0.05 233.89 0.05L233.89 0.05 224.29 0.15Q222.69 0.15 222.06-0.43 221.44-1 221.44-2.15L221.44-2.15 221.49-14.35Q221.49-15.85 220.74-16.6 219.99-17.35 218.86-17.35 217.74-17.35 216.84-16.57 215.94-15.8 215.89-14.4L215.89-14.4 215.59-2.35Q215.54-1.4 214.69-0.75 213.84-0.1 212.61 0 211.39 0.1 209.89 0.1L209.89 0.1 202.89 0Q201.94 0 201.01-0.68 200.09-1.35 200.09-2.35ZM249.44-23.93Q251.74-25.05 254.16-25.55 256.59-26.05 260.16-26.05 263.74-26.05 266.99-25.18 270.24-24.3 271.84-22.8L271.84-22.8Q274.64-20.05 274.64-16.35L274.64-16.35Q274.64-10.55 264.84-10.55L264.84-10.55Q261.39-10.55 257.69-11.2L257.69-11.2Q257.84-7.9 258.91-6.55 259.99-5.2 262.74-5.2 265.49-5.2 267.29-5.8 269.09-6.4 270.19-7.03 271.29-7.65 272.06-7.65 272.84-7.65 273.39-6.95L273.39-6.95Q274.24-6.05 274.24-4.48 274.24-2.9 273.61-2.33 272.99-1.75 271.64-1.2L271.64-1.2Q266.89 0.8 258.14 0.8L258.14 0.8Q250.89 0.8 246.21-2.68 241.54-6.15 241.54-12.05L241.54-12.05Q241.54-14.9 242.59-17.28 243.64-19.65 245.39-21.23 247.14-22.8 249.44-23.93ZM261.04-20.35L261.04-20.35Q257.99-20.35 257.74-15.4L257.74-15.4Q260.14-15.2 260.24-15.2L260.24-15.2Q263.54-15.2 263.54-17.4L263.54-17.4Q263.54-20.35 261.04-20.35ZM295.13 1Q290.83 1 287.11 0.05 283.38-0.9 281.86-1.85 280.33-2.8 279.83-3.2L279.83-3.2Q278.53-4.25 278.53-6.1L278.53-6.1Q278.53-7.55 278.88-8.85L278.88-8.85Q279.53-11.3 281.23-11.3L281.23-11.3Q281.78-11.25 284.76-10.15 287.73-9.05 289.43-9.05L289.43-9.05Q291.98-9.05 291.98-11.05L291.98-11.05Q291.98-12.25 290.73-13.28 289.48-14.3 287.71-15.25 285.93-16.2 284.13-17.43 282.33-18.65 281.08-20.83 279.83-23 279.83-25.9L279.83-25.9Q279.83-30.7 284.53-33.43 289.23-36.15 296.68-36.15 304.13-36.15 308.51-34.63 312.88-33.1 312.88-30.4L312.88-30.4Q312.88-28.45 311.98-26.98 311.08-25.5 310.08-25.5L310.08-25.5Q309.73-25.5 307.76-26.28 305.78-27.05 304.18-27.05L304.18-27.05Q301.03-27.05 301.03-24.6L301.03-24.6Q301.03-23.4 302.53-22.4 304.03-21.4 306.16-20.48 308.28-19.55 310.43-18.4 312.58-17.25 314.08-15.25 315.58-13.25 315.58-10.4 315.58-7.55 313.76-5.2 311.93-2.85 308.93-1.55L308.93-1.55Q302.98 1 295.13 1L295.13 1ZM356.28-0.05L349.38 0.05 343.88 0Q341.98 0 341.23-1.15L341.23-1.15 336.58-8.55Q336.18-8.85 336.11-8.78 336.03-8.7 336.01-7.08 335.98-5.45 335.73-2.15L335.73-2.15Q335.63-1.35 334.93-0.7 334.23-0.05 332.56 0.05 330.88 0.15 328.51 0.15 326.13 0.15 323.23 0L323.23 0Q322.03-0.05 321.36-0.68 320.68-1.3 320.58-2.15L320.58-2.15Q320.08-8.25 320.08-18.45 320.08-28.65 320.48-33.3L320.48-33.3Q320.63-35 321.16-35.77 321.68-36.55 323.33-36.55L323.33-36.55 332.93-36.55Q334.58-36.55 335.13-35.77 335.68-35 335.83-33.3L335.83-33.3Q336.13-28.95 336.13-18.7L336.13-18.7Q336.13-17.55 336.53-17.55L336.53-17.55Q336.78-17.55 337.08-17.85L337.08-17.85 343.63-23.85Q344.48-24.6 345.03-24.83 345.58-25.05 346.58-25.05L346.58-25.05 353.88-25.05Q354.53-25.05 354.83-24.2L354.83-24.2Q354.93-24 354.93-23.6 354.93-23.2 354.43-22.7L354.43-22.7 347.48-16.6Q347.08-16.2 347.48-15.75L347.48-15.75Q352.23-10.15 357.58-2.65L357.58-2.65Q358.13-1.9 358.13-1.3L358.13-1.3Q358.13-0.05 356.28-0.05L356.28-0.05ZM365.13 1.95L366.23 1.95Q372.83 1.95 372.83 0L372.83 0Q372.83-0.65 372.03-1.95L372.03-1.95Q368.38-7.65 361.23-21.6L361.23-21.6Q360.68-22.75 360.68-23.4L360.68-23.4Q360.68-25.45 362.73-25.45L362.73-25.45 373.73-25.45Q375.33-25.45 376.15-24.95 376.98-24.45 377.73-23.05L377.73-23.05 382.38-14.35Q382.68-13.75 383.23-13.75 383.78-13.75 384.08-14.35L384.08-14.35 388.88-24.3Q389.33-25.3 389.93-25.4L389.93-25.4Q390.13-25.4 390.68-25.45L390.68-25.45 395.93-25.45Q396.63-25.45 396.93-24.8L396.93-24.8Q397.03-24.5 397.03-24.13 397.03-23.75 396.65-23.03 396.28-22.3 392.88-15.05 389.48-7.8 387.7-4.4 385.93-1 385.2 0.25 384.48 1.5 383.28 3.23 382.08 4.95 380.98 5.83 379.88 6.7 378.23 7.6L378.23 7.6Q375.33 9.15 370.8 9.15 366.28 9.15 364.83 8.38 363.38 7.6 363.38 5L363.38 5Q363.38 3.75 363.85 2.85 364.33 1.95 365.13 1.95L365.13 1.95Z" fill="#ddf1ea" data-fill-palette-color="primary"></path></g></svg></g></svg></g><g transform="matrix(1,0,0,1,0,34.942688130764395)"><svg viewBox="0 0 244.43135999999998 17.470269841670248" height="17.470269841670248" width="244.43135999999998"><g transform="matrix(1,0,0,1,0,0)"><svg width="244.43135999999998" viewBox="0.45000001788139343 -36.79999923706055 616.3200073242188 44.04999923706055" height="17.470269841670248" data-palette-color="#528265"><path d="M30.55-33L30.55-33 30.6-31.7Q30.6-27.8 29.9-23.5L29.9-23.5 26.5-23.5 25.85-29.15 18.55-29.55 18.55-3.15 24-2.45 23.95 0 7.5 0 7.2-1.6 10.85-3 12.45-3.55 12.45-29.55 5.15-29.15 4.5-23.5 1.15-23.5Q0.45-27.6 0.45-31.4L0.45-31.4 0.5-33 15.6-32.8Q23.55-32.8 30.55-33ZM54.97-23.05L54.97-23.05Q55.07-18.75 53.62-14.25L53.62-14.25 50.37-14.25 49.57-19.85Q46.17-17.6 43.67-14.45L43.67-14.45 43.67-3.75Q47.42-3.25 48.87-2.4L48.87-2.4 48.67 0 34.32 0 34.12-1.7Q35.72-2.5 37.82-3.15L37.82-3.15 37.82-20.35 34.07-20.4 33.57-22.8Q37.02-24.2 41.42-24.45L41.42-24.45 43.67-22.45 43.67-18.2 48.77-23.75Q49.97-24.25 51.32-24.25L51.32-24.25Q53.47-24.25 54.97-23.05ZM82.95-4.2L83.55-2 78 0.8Q77.05 0.7 75.8-0.33 74.55-1.35 73.9-2.75L73.9-2.75 68.4 0.7 67.05 0.8Q64 0.8 62.02-1 60.05-2.8 60.05-5.35L60.05-5.35Q60.05-8.95 63.75-10.9L63.75-10.9 73.4-11.15 73.4-15.95Q73.4-19.95 71-21.2L71-21.2Q68.35-21.1 66.3-20.4L66.3-20.4 65.65-15.1 62.25-14.95Q60.9-17.75 61-21.45L61-21.45Q63.45-22.7 67.22-23.75 71-24.8 72.75-24.8L72.75-24.8Q74.45-24.8 76.12-23.73 77.8-22.65 78.7-21.25L78.7-21.25Q79.25-20.25 79.3-17.45L79.3-17.45 79.3-4.9Q79.3-3.85 80.55-3.85L80.55-3.85 82.95-4.2ZM67.2-3.3L67.2-3.3Q69.6-3.3 73.4-4.8L73.4-4.8 73.4-8.4 71.65-8.45Q66.05-8.45 66.05-5.55L66.05-5.55Q66.05-4.1 67.2-3.3ZM112.82-23.6L113.07-21.55 110.12-20.3Q105.52-7.4 102.57-0.15L102.57-0.15Q101.07 0.35 98.72 0.35L98.72 0.35 95.97 0.15 88.77-20.25 85.87-21.05 85.92-23.6 97.37-23.6 97.62-21.55 95.12-20.5 98.52-9.65 99.27-4.8 100.32-4.8Q102.12-10.75 104.37-20.5L104.37-20.5 101.77-21.05 101.82-23.6 112.82-23.6ZM134.54-12.4L121.79-12.6Q121.79-8.35 124.02-6 126.24-3.65 129.69-3.65L129.69-3.65Q132.39-3.65 136.09-5.35L136.09-5.35 136.99-3 129.19 0.7Q123.39 1 119.67-2.45 115.94-5.9 115.94-11.45L115.94-11.45Q115.94-16.85 119.42-20.73 122.89-24.6 127.84-24.6L127.84-24.6Q132.04-24.6 134.77-21.98 137.49-19.35 137.44-15.2L137.44-15.2 134.54-12.4ZM125.69-21.2L125.69-21.2Q123.04-19.7 122.14-15.6L122.14-15.6 131.89-16.1Q131.49-18.4 129.77-19.83 128.04-21.25 125.69-21.2ZM152.62-34.8L152.62-3.6Q154.92-3.2 156.17-2.4L156.17-2.4 155.97 0 143.17 0 142.97-1.7Q144.42-2.45 146.77-3.15L146.77-3.15 146.77-32.65 143.02-32.75 142.52-35.15Q145.97-36.55 150.37-36.8L150.37-36.8 152.62-34.8ZM203.56-8.85L203.56-8.85Q203.56-4.5 200.24-1.75 196.91 1 191.86 1L191.86 1Q189.01 1 185.74 0.1 182.46-0.8 180.61-2.35L180.61-2.35 180.66-2.5 180.61-4.25Q180.61-8.1 181.26-11.2L181.26-11.2 184.41-11.2 186.01-4.6Q189.16-2.7 193.51-2.7L193.51-2.7 194.61-2.75Q197.41-4.15 197.41-7.4L197.41-7.4Q197.41-10.2 194.01-12.15L194.01-12.15 186.11-16.2Q180.76-19.35 180.76-24.25L180.76-24.25Q180.76-28.45 184.21-31.08 187.66-33.7 193.01-33.7L193.01-33.7Q197.11-33.7 202.06-32.05L202.06-32.05Q202.31-27.85 201.41-23.2L201.41-23.2 198.06-23.2 197.11-28.4Q194.31-30.05 190.51-30.05L190.51-30.05 189.01-30Q186.66-28.55 186.66-25.7L186.66-25.7Q186.66-23.05 190.26-21.15L190.26-21.15 197.76-17.45Q203.56-14.2 203.56-8.85ZM209.99-11.9L209.99-11.9Q209.99-17.5 213.31-21.05 216.64-24.6 221.69-24.6 226.74-24.6 229.96-21.03 233.19-17.45 233.19-11.65L233.19-11.65Q233.19-5.9 230.01-2.45 226.84 1 221.84 1L221.84 1Q216.69 1 213.34-2.63 209.99-6.25 209.99-11.9ZM224.39-3L224.39-3Q227.14-4.85 227.14-11.1L227.14-11.1Q227.14-15.4 225.71-18.18 224.29-20.95 221.34-20.95L221.34-20.95Q219.44-20.95 218.14-20L218.14-20Q216.09-17.45 216.09-12.25L216.09-12.25Q216.09-8.15 217.64-5.4 219.19-2.65 222.29-2.65L222.29-2.65Q223.29-2.65 224.39-3ZM247.71-34.8L247.71-3.6Q250.01-3.2 251.26-2.4L251.26-2.4 251.06 0 238.26 0 238.06-1.7Q239.51-2.45 241.86-3.15L241.86-3.15 241.86-32.65 238.11-32.75 237.61-35.15Q241.06-36.55 245.46-36.8L245.46-36.8 247.71-34.8ZM256.39-11.9L256.39-11.9Q256.39-17.5 259.71-21.05 263.04-24.6 268.09-24.6 273.14-24.6 276.36-21.03 279.59-17.45 279.59-11.65L279.59-11.65Q279.59-5.9 276.41-2.45 273.24 1 268.24 1L268.24 1Q263.09 1 259.74-2.63 256.39-6.25 256.39-11.9ZM270.79-3L270.79-3Q273.54-4.85 273.54-11.1L273.54-11.1Q273.54-15.4 272.11-18.18 270.69-20.95 267.74-20.95L267.74-20.95Q265.84-20.95 264.54-20L264.54-20Q262.49-17.45 262.49-12.25L262.49-12.25Q262.49-8.15 264.04-5.4 265.59-2.65 268.69-2.65L268.69-2.65Q269.69-2.65 270.79-3ZM287.06 7.25L285.36 5.1Q288.56 2.45 288.76-0.35L288.76-0.35 286.16-2.45Q286.66-5.5 289.66-7L289.66-7Q293.66-5.65 293.66-1.8L293.66-1.8Q293.66 0.65 291.83 3.18 290.01 5.7 287.06 7.25L287.06 7.25ZM349.01-29.35L348.91 0 342.86 0.6 342.81 0.6 342.86 0.55 326.06-25.7 326.86-19.2 326.86-3 331.26-2.45 331.21 0 318.31 0 318.01-1.6 322.26-3.4 322.26-29.8 318.86-30.25 318.91-32.7 328.96-32.7 345.21-6.95 344.41-13.35 344.41-29.6 339.51-30.25 339.56-32.7 352.86-32.7 353.16-31.1Q351.66-30.25 349.01-29.35L349.01-29.35ZM357.13-11.9L357.13-11.9Q357.13-17.5 360.45-21.05 363.78-24.6 368.83-24.6 373.88-24.6 377.1-21.03 380.33-17.45 380.33-11.65L380.33-11.65Q380.33-5.9 377.15-2.45 373.98 1 368.98 1L368.98 1Q363.83 1 360.48-2.63 357.13-6.25 357.13-11.9ZM371.53-3L371.53-3Q374.28-4.85 374.28-11.1L374.28-11.1Q374.28-15.4 372.85-18.18 371.43-20.95 368.48-20.95L368.48-20.95Q366.58-20.95 365.28-20L365.28-20Q363.23-17.45 363.23-12.25L363.23-12.25Q363.23-8.15 364.78-5.4 366.33-2.65 369.43-2.65L369.43-2.65Q370.43-2.65 371.53-3ZM396.75-4.1L396.75-4.1Q398.1-4.1 401.15-5.05L401.15-5.05 401.8-2.65 394.75 0.8Q392.75 0.9 390.95-0.6 389.15-2.1 389.15-3.9L389.15-3.9 389.15-19.15 385.9-19.1 385.6-21.6Q387.65-22.75 389.4-23.35L389.4-23.35 391.6-29.75 394.5-29.75 394.9-23.5 401.9-23.5 402.05-21.7 399.65-19.05 395-19.05 395-6.65Q395-5.25 395.38-4.67 395.75-4.1 396.75-4.1ZM455.2-2.9L458.8-2.45 458.75 0 444.2 0 443.9-1.6Q445.55-2.5 448.5-3.5L448.5-3.5 446.15-9.55 433.45-9.55 430.95-3.1 435.85-2.45 435.8 0 422.55 0 422.25-1.6Q424.05-2.55 426.4-3.35L426.4-3.35 437.8-31.1 437.3-32.35 442.55-33.9 455.2-2.9ZM434.75-13L444.8-13 439.8-25.95 434.75-13ZM472.77-34.8L472.77-3.6Q475.07-3.2 476.32-2.4L476.32-2.4 476.12 0 463.32 0 463.12-1.7Q464.57-2.45 466.92-3.15L466.92-3.15 466.92-32.65 463.17-32.75 462.67-35.15Q466.12-36.55 470.52-36.8L470.52-36.8 472.77-34.8ZM481.45-11.9L481.45-11.9Q481.45-17.5 484.77-21.05 488.1-24.6 493.15-24.6 498.2-24.6 501.42-21.03 504.65-17.45 504.65-11.65L504.65-11.65Q504.65-5.9 501.47-2.45 498.3 1 493.3 1L493.3 1Q488.15 1 484.8-2.63 481.45-6.25 481.45-11.9ZM495.85-3L495.85-3Q498.6-4.85 498.6-11.1L498.6-11.1Q498.6-15.4 497.17-18.18 495.75-20.95 492.8-20.95L492.8-20.95Q490.9-20.95 489.6-20L489.6-20Q487.55-17.45 487.55-12.25L487.55-12.25Q487.55-8.15 489.1-5.4 490.65-2.65 493.75-2.65L493.75-2.65Q494.75-2.65 495.85-3ZM535.22-16.4L535.22-3.6Q537.52-3.1 538.77-2.4L538.77-2.4 538.52 0 526.77 0 526.57-1.7 529.37-2.85 529.37-14.6Q529.37-19.75 526.22-19.75L526.22-19.75Q524.07-19.75 519.92-17.1L519.92-17.1 519.92-3.55Q521.97-3 523.02-2.4L523.02-2.4 522.82 0 510.67 0 510.47-1.7Q511.67-2.35 514.07-3.1L514.07-3.1 514.07-20.35 510.32-20.4 509.82-22.8Q513.27-24.2 517.67-24.45L517.67-24.45 519.92-22.35 519.92-19.5Q526.02-23.85 529.22-24.4L529.22-24.4Q530.72-24.2 532.25-23.25 533.77-22.3 534.57-20.95L534.57-20.95Q535.17-19.85 535.22-16.4L535.22-16.4ZM561.74-12.4L548.99-12.6Q548.99-8.35 551.22-6 553.44-3.65 556.89-3.65L556.89-3.65Q559.59-3.65 563.29-5.35L563.29-5.35 564.19-3 556.39 0.7Q550.59 1 546.87-2.45 543.14-5.9 543.14-11.45L543.14-11.45Q543.14-16.85 546.62-20.73 550.09-24.6 555.04-24.6L555.04-24.6Q559.24-24.6 561.97-21.98 564.69-19.35 564.64-15.2L564.64-15.2 561.74-12.4ZM552.89-21.2L552.89-21.2Q550.24-19.7 549.34-15.6L549.34-15.6 559.09-16.1Q558.69-18.4 556.97-19.83 555.24-21.25 552.89-21.2ZM591.74-11.2L589.94-32.8Q591.39-33.8 593.84-33.8L593.84-33.8Q596.49-33.8 597.49-32.7L597.49-32.7 595.59-11.2 591.74-11.2ZM593.49-7.2L593.49-7.2Q596.99-5.8 597.59-3.1L597.59-3.1Q596.74-0.25 594.14 1L594.14 1Q591.14 0.35 589.84-2.45L589.84-2.45Q590.34-5.55 593.49-7.2ZM610.92-11.2L609.12-32.8Q610.57-33.8 613.02-33.8L613.02-33.8Q615.67-33.8 616.67-32.7L616.67-32.7 614.77-11.2 610.92-11.2ZM612.67-7.2L612.67-7.2Q616.17-5.8 616.77-3.1L616.77-3.1Q615.92-0.25 613.32 1L613.32 1Q610.32 0.35 609.02-2.45L609.02-2.45Q609.52-5.55 612.67-7.2Z" opacity="1" transform="matrix(1,0,0,1,0,0)" fill="#528265" class="slogan-text-1" data-fill-palette-color="secondary" id="text-1"></path></svg></g></svg></g></svg></g></svg></g><g><svg viewBox="0 0 74.89785299349649 72.43470791790467" height="72.43470791790467" width="74.89785299349649"><g><svg xmlns="http://www.w3.org/2000/svg" xmlns:xlink="http://www.w3.org/1999/xlink" version="1.1" x="0" y="0" viewBox="3.4542438983917236 5.247760772705078 82.44974517822266 79.73824310302734" enable-background="new 0 0 90 90" xml:space="preserve" height="72.43470791790467" width="74.89785299349649" class="icon-icon-0" data-fill-palette-color="accent" id="icon-0"><g fill="#528265" data-fill-palette-color="accent"><g fill="#528265" data-fill-palette-color="accent"><g fill="#528265" data-fill-palette-color="accent"><path d="M70.756 84.986c-0.282 0-0.554-0.161-0.681-0.435-0.191-0.413-0.415-0.846-0.671-1.293-0.518-0.915-1.18-1.7-1.969-2.337-0.914-0.732-2.001-1.274-3.228-1.61-0.822-0.214-1.664-0.324-2.493-0.325-1.34 0.033-2.668 0.406-3.948 1.108-0.351 0.246-0.733 0.534-1.085 0.822-0.316 0.264-0.792 0.218-1.055-0.104-0.264-0.319-0.217-0.792 0.104-1.055 0.381-0.313 0.798-0.627 1.25-0.938 1.56-0.86 3.121-1.296 4.706-1.334l0 0c0.001 0 0.001 0 0.002 0l0 0h0.001c0.008 0 0.017-0.001 0.021 0 0.958 0 1.929 0.127 2.885 0.376 1.435 0.393 2.704 1.028 3.78 1.891 0.938 0.757 1.723 1.687 2.333 2.764 0.271 0.476 0.517 0.948 0.729 1.404 0.174 0.376 0.011 0.821-0.365 0.996C70.97 84.964 70.862 84.986 70.756 84.986zM84.405 83.486c-0.123 0-0.248-0.03-0.363-0.095-0.362-0.201-0.492-0.658-0.291-1.02 0.435-0.782 0.655-1.685 0.655-2.685 0-1.608-0.55-2.939-1.681-4.069-1.09-1.062-2.391-1.581-3.97-1.581-0.949 0-1.82 0.191-2.596 0.571l0.035 0.082c0.163 0.381-0.014 0.822-0.394 0.985-0.382 0.161-0.822-0.013-0.985-0.394l-0.299-0.696c0-0.001 0-0.002-0.001-0.003-0.261-0.609-0.662-1.186-1.191-1.714-1.09-1.063-2.391-1.582-3.97-1.582-1.062 0-2.013 0.236-2.827 0.702-0.359 0.204-0.817 0.079-1.023-0.279-0.205-0.359-0.08-0.817 0.279-1.023 1.044-0.597 2.246-0.899 3.571-0.899 1.961 0 3.651 0.678 5.023 2.014 0.456 0.455 0.837 0.94 1.14 1.451 0.977-0.475 2.062-0.715 3.237-0.715 1.961 0 3.651 0.678 5.023 2.014 1.414 1.412 2.127 3.139 2.127 5.137 0 1.258-0.284 2.406-0.845 3.413C84.925 83.348 84.669 83.486 84.405 83.486zM34.806 71.287c-0.197 0-0.394-0.077-0.541-0.23-0.744-0.774-1.63-1.298-2.71-1.598-0.791-0.204-1.573-0.266-2.31-0.177-0.407 0.044-0.785-0.245-0.833-0.656-0.049-0.411 0.244-0.784 0.656-0.834 0.921-0.11 1.89-0.036 2.876 0.218 1.34 0.373 2.48 1.047 3.403 2.008 0.287 0.299 0.277 0.773-0.021 1.061C35.18 71.218 34.993 71.287 34.806 71.287zM47.406 65.236c-0.107 0-0.215-0.023-0.314-0.069-0.214-0.099-0.369-0.292-0.419-0.522-0.234-1.084-0.771-2.052-1.598-2.878-0.882-0.851-1.871-1.34-3.014-1.485-0.411-0.053-0.701-0.429-0.649-0.839 0.052-0.411 0.43-0.697 0.839-0.649 1.455 0.186 2.758 0.826 3.875 1.903 0.814 0.814 1.404 1.736 1.765 2.755 0.759-0.275 1.584-0.414 2.465-0.414 0.414 0 0.75 0.336 0.75 0.75s-0.336 0.75-0.75 0.75c-0.967 0-1.84 0.205-2.595 0.61C47.65 65.206 47.528 65.236 47.406 65.236zM28.706 58.486c-0.123 0-0.245-0.03-0.356-0.09-0.243-0.131-0.394-0.385-0.394-0.66v-0.25c0-1.606-0.55-2.938-1.681-4.069-0.233-0.232-0.481-0.437-0.734-0.604-0.345-0.229-0.439-0.695-0.209-1.04 0.228-0.347 0.694-0.44 1.04-0.21 0.335 0.224 0.66 0.49 0.964 0.793 1.175 1.176 1.866 2.572 2.063 4.163 1.476-0.628 3.272-0.782 4.919-0.301 0.397 0.116 0.625 0.533 0.509 0.931s-0.534 0.623-0.931 0.509c-0.498-0.146-1.016-0.22-1.539-0.22-1.229 0-2.288 0.303-3.239 0.926C28.993 58.445 28.85 58.486 28.706 58.486zM17.105 54.387c-0.136 0-0.274-0.037-0.398-0.114-0.351-0.221-0.457-0.684-0.237-1.034 0.195-0.312 0.432-0.607 0.704-0.881 0.451-0.424 0.921-0.771 1.409-1.046-0.217-1.115-0.729-2.066-1.558-2.895-1.09-1.061-2.391-1.579-3.97-1.579-1.154 0-2.165 0.266-3.061 0.809 1.295 0.496 2.313 1.396 3.019 2.68 0.146 0.194 0.323 0.508 0.478 0.854 0.168 0.378-0.001 0.822-0.379 0.99-0.38 0.171-0.822 0-0.991-0.379-0.114-0.255-0.24-0.479-0.375-0.668-0.681-1.228-1.605-1.942-2.873-2.26-0.224-0.063-0.424-0.105-0.625-0.136-1.033-0.14-1.986 0.056-2.91 0.604-0.293 0.136-0.469 0.251-0.601 0.384-0.292 0.293-0.768 0.297-1.061 0.004-0.294-0.292-0.296-0.767-0.004-1.061 0.264-0.266 0.593-0.487 0.979-0.657 1.03-0.618 2.207-0.898 3.438-0.799 1.384-1.241 3.05-1.865 4.964-1.865 1.961 0 3.651 0.677 5.023 2.011 0.959 0.959 1.596 2.082 1.905 3.352 0.667-0.216 1.369-0.337 2.096-0.362 0.426 0.006 0.762 0.311 0.775 0.725 0.014 0.414-0.31 0.761-0.724 0.775-0.855 0.029-1.663 0.222-2.399 0.573-0.007 0.004-0.014 0.007-0.021 0.01-0.522 0.233-1.024 0.573-1.492 1.013-0.175 0.177-0.342 0.385-0.478 0.602C17.599 54.262 17.355 54.387 17.105 54.387z" fill="#528265" data-fill-palette-color="accent"></path></g><g fill="#528265" data-fill-palette-color="accent"><path d="M67.907 81.088c-0.226 0-0.449-0.102-0.597-0.294-0.252-0.329-0.188-0.8 0.14-1.052l0.405-0.305c0.646-0.57 1.021-1.276 1.104-2.123 0.08-0.837-0.161-1.592-0.738-2.307l-2.643-3.191-7.748-9.247c-0.169-0.201-0.22-0.477-0.134-0.726l5.513-15.999-9.408-25.7c-0.227-0.603-0.312-1.178-0.253-1.708-0.045-0.369-0.066-0.738-0.062-1.105-0.714 1.51-1.855 2.719-3.409 3.607-1.363 0.798-2.842 1.192-4.316 1.164-1.556 2.058-3.836 6.146-6.783 12.164-0.158 0.323-0.522 0.488-0.87 0.394l-9.4-2.55c-0.211-0.046-0.459-0.074-0.704-0.074-0.59-0.027-1.122 0.118-1.664 0.443-0.664 0.36-1.089 0.862-1.328 1.552-0.477 1.238-0.377 2.171 0.307 2.961 0.005 0.005 0.009 0.011 0.014 0.016 0.385 0.467 0.986 0.895 1.787 1.273l1.486 0.432c0.003 0 0.006 0.001 0.01 0.002L39.1 41.512c0.746 0.158 1.494 0.076 2.252-0.26 0.682-0.342 1.189-0.876 1.519-1.619l3.509-7.32c0.134-0.277 0.421-0.45 0.729-0.424 0.307 0.021 0.569 0.229 0.662 0.522 1.237 3.912 2.371 8.43 3.371 13.429 0.041 0.203-0.005 0.414-0.125 0.583-0.121 0.169-0.306 0.28-0.512 0.308l-13.15 1.749c-0.835 0.137-1.503 0.509-2.021 1.136-0.515 0.65-0.756 1.406-0.729 2.299l1 19.996c0.053 0.849 0.412 1.563 1.096 2.163 0.666 0.562 1.434 0.802 2.336 0.717 0.848-0.029 1.545-0.362 2.176-1.021 0.433-0.538 0.69-1.141 0.745-1.794l-0.002-0.537-0.799-16.358c-0.021-0.392 0.261-0.733 0.649-0.785l8.149-1.1c1.03-0.1 1.92-0.215 2.673-0.346 0.252-0.039 0.509 0.044 0.682 0.233 0.173 0.188 0.237 0.452 0.171 0.699l-2.35 8.799c-0.073 0.318-0.086 0.699-0.032 1.108l0.004 0.149c0.023 0.075 0.039 0.152 0.048 0.229 0.11 0.405 0.311 0.794 0.596 1.156l10.534 12.53c0.267 0.316 0.226 0.79-0.092 1.057-0.317 0.266-0.789 0.226-1.057-0.092L50.582 66.17c-0.446-0.567-0.745-1.167-0.903-1.801-0.009-0.033-0.015-0.066-0.018-0.101-0.037-0.09-0.056-0.186-0.056-0.282v-0.199c-0.071-0.489-0.05-1.051 0.07-1.57l2.06-7.716c-0.499 0.066-1.036 0.128-1.607 0.183l-7.435 1.004 0.212 3.808 0.551 12.542c-0.083 1.013-0.458 1.907-1.117 2.722-0.944 0.99-2.009 1.488-3.208 1.528-1.259 0.112-2.421-0.246-3.407-1.076-0.997-0.876-1.537-1.958-1.616-3.227l-0.051-1.42-0.949-18.59c-0.04-1.257 0.318-2.363 1.061-3.303 0.76-0.919 1.755-1.479 2.968-1.676l12.376-1.647c-0.794-3.877-1.67-7.448-2.612-10.652l-2.667 5.564c-0.461 1.04-1.218 1.836-2.241 2.347-1.074 0.478-2.155 0.595-3.242 0.362l-9.759-2.601-2.298 11.96-3.601 18.302c-0.191 0.772-0.613 1.335-1.263 1.707-0.613 0.395-1.309 0.51-1.979 0.321-0.654-0.119-1.23-0.468-1.645-1.021-0.492-0.58-0.667-1.325-0.479-2.122l3.644-18.57c0 0 0 0 0-0.001l2.584-13.264c-0.625-0.869-1.093-2.234-0.348-4.164 0.354-1.021 1.027-1.816 1.993-2.339 0.763-0.459 1.594-0.683 2.442-0.64 0.003 0 0.006 0 0.01 0 0.316 0 0.67 0.04 1.018 0.117l8.836 2.396c2.599-5.278 4.627-8.954 6.161-11.164-0.101-0.023-0.202-0.048-0.304-0.076-2.226-0.62-3.94-1.948-5.105-3.947-1.165-2.003-1.46-4.145-0.877-6.368 0.585-2.229 1.918-3.934 3.962-5.065 1.985-1.192 4.136-1.488 6.365-0.867 2.219 0.582 3.923 1.915 5.055 3.959 0.806 1.36 1.194 2.805 1.157 4.31 0.004-0.006 0.007-0.013 0.01-0.019 1.081-2.271 2.802-3.862 5.113-4.729 2.322-0.835 4.632-0.743 6.872 0.269 0.006 0.003 0.012 0.005 0.019 0.008 2.232 1.081 3.821 2.797 4.721 5.103l6.407 17.617c0.741 2.148 0.486 4.34-0.753 6.525-1.244 2.099-2.401 3.472-3.545 4.21-0.69 0.411-1.245 0.71-1.69 0.913l0.035 0.095c0.37 1.108 0.31 2.186-0.171 3.227-0.49 1.022-1.287 1.739-2.371 2.139-1.114 0.438-2.221 0.415-3.274-0.071-0.65-0.325-1.177-0.756-1.578-1.29l-4.859 14.104 10.129 12.127c0.831 1.028 1.188 2.17 1.069 3.4-0.119 1.227-0.675 2.284-1.651 3.142l-0.438 0.333C68.226 81.038 68.065 81.088 67.907 81.088zM22.841 51.234l-3.649 18.598c-0.084 0.361-0.025 0.621 0.187 0.871 0.215 0.285 0.465 0.432 0.815 0.497 0.229 0.062 0.485 0.095 0.858-0.145 0.32-0.185 0.493-0.417 0.577-0.751l3.592-18.262 2.32-12.077-0.894-0.259c-0.037-0.011-0.072-0.024-0.107-0.04-0.487-0.226-0.921-0.473-1.301-0.74l-2.397 12.304C22.842 51.232 22.842 51.233 22.841 51.234zM64.725 45.622l0.193 0.578c0.258 0.697 0.727 1.218 1.424 1.566 0.657 0.304 1.349 0.314 2.09 0.021 0.73-0.27 1.232-0.718 1.549-1.376 0.314-0.683 0.354-1.369 0.113-2.087l-0.29-0.774c-0.076-0.202-0.061-0.427 0.041-0.618 0.103-0.19 0.281-0.327 0.491-0.376 0.202-0.047 0.734-0.241 2.037-1.015 0.907-0.587 1.938-1.833 3.037-3.688 1.025-1.808 1.235-3.537 0.637-5.272L69.65 14.994c-0.761-1.949-2.06-3.354-3.963-4.277-1.896-0.854-3.771-0.926-5.728-0.224-1.953 0.733-3.355 2.031-4.277 3.967-0.6 1.26-0.813 2.563-0.634 3.876 0.01 0.071 0.009 0.144-0.002 0.215-0.046 0.303 0.008 0.665 0.161 1.073l9.5 25.95C64.714 45.59 64.72 45.606 64.725 45.622zM45.458 20.589c1.344 0.083 2.623-0.22 3.869-0.95 1.707-0.975 2.769-2.345 3.253-4.193 0.485-1.848 0.249-3.542-0.72-5.177-0.949-1.714-2.301-2.773-4.145-3.257-1.855-0.517-3.56-0.28-5.225 0.718-1.718 0.952-2.776 2.304-3.26 4.147-0.485 1.851-0.249 3.563 0.723 5.233 0.974 1.673 2.349 2.738 4.203 3.254C44.599 20.482 45.039 20.559 45.458 20.589z" fill="#528265" data-fill-palette-color="accent"></path></g></g></g></svg></g></svg></g></svg></g></svg></g></svg></g><g><path d="M0 123.6c0-68.262 55.338-123.6 123.6-123.6 58.039 0 106.735 40.004 120.019 93.943h-0.985c-13.262-53.406-61.526-92.987-119.034-92.987-67.735 0-122.644 54.91-122.644 122.644 0 67.735 54.91 122.644 122.644 122.644 57.508 0 105.772-39.581 119.034-92.987l0.985 0c-13.284 53.939-61.98 93.943-120.019 93.943-68.262 0-123.6-55.338-123.6-123.6z" fill="#c7efe0" stroke="transparent" data-fill-palette-color="tertiary"></path></g></svg></g><defs></defs></svg><rect width="395.52" height="247.2" fill="none" stroke="none" visibility="hidden"></rect></g></svg></g></svg>